<svg width="61" height="60" viewBox="0 0 61 60" fill="none" xmlns="http://www.w3.org/2000/svg">
<path d="M5.276 26.7659C5.19 27.0519 5.58 27.2419 5.774 27.0119C8.93 23.2699 15.61 14.9079 23.412 18.3279C28.892 20.7299 30.782 28.9339 37.016 29.8799C39.558 30.2659 42.216 29.0799 43.812 27.1119C45.408 25.1439 45.99 22.4979 45.66 20.0099C45.33 17.5219 44.146 15.1919 42.554 13.2199C35.574 4.58394 24.222 4.89994 17.428 9.21394C17.154 9.38794 17.302 9.83194 17.624 9.77394C21.116 9.14394 25.144 7.55795 31.634 11.0839C39.226 15.2079 40.088 19.9219 38.716 21.6119C35.862 25.1299 32.24 17.9839 27.104 15.1159C20.514 11.4439 9.178 13.8439 5.276 26.7659Z" fill="white"/>
<path d="M36.616 6.26395C38.3336 6.26395 39.726 4.90648 39.726 3.23195C39.726 1.55742 38.3336 0.199951 36.616 0.199951C34.8984 0.199951 33.506 1.55742 33.506 3.23195C33.506 4.90648 34.8984 6.26395 36.616 6.26395Z" fill="white"/>
<path d="M10.4684 13.116C12.186 13.116 13.5784 11.7585 13.5784 10.084C13.5784 8.40948 12.186 7.052 10.4684 7.052C8.75079 7.052 7.3584 8.40948 7.3584 10.084C7.3584 11.7585 8.75079 13.116 10.4684 13.116Z" fill="white"/>
<path d="M39.5143 53.1339C39.8123 53.0679 39.7923 52.6419 39.4903 52.5899C34.5963 51.7419 23.8463 50.1639 23.0823 41.8579C22.5463 36.0239 28.9563 30.3979 26.7483 24.6399C25.8463 22.2899 23.4843 20.6119 20.9423 20.2199C18.4003 19.8279 15.7483 20.6299 13.6843 22.1279C11.6203 23.6259 10.1163 25.7759 9.13434 28.0939C4.83034 38.2559 10.6743 47.7459 17.8623 51.4059C18.1523 51.5539 18.4763 51.2099 18.2683 50.9659C15.9943 48.3079 12.6023 45.6639 12.5743 38.4199C12.5443 29.9479 16.3363 26.9059 18.5203 27.2439C23.0643 27.9459 18.4483 34.5259 18.4003 40.2939C18.3443 47.6939 26.0463 56.1499 39.5143 53.1339Z" fill="white"/>
<path d="M3.11 41.0679C4.82761 41.0679 6.22 39.7104 6.22 38.0359C6.22 36.3614 4.82761 35.0039 3.11 35.0039C1.3924 35.0039 0 36.3614 0 38.0359C0 39.7104 1.3924 41.0679 3.11 41.0679Z" fill="white"/>
<path d="M22.0524 59.928C23.77 59.928 25.1624 58.5705 25.1624 56.896C25.1624 55.2215 23.77 53.864 22.0524 53.864C20.3348 53.864 18.9424 55.2215 18.9424 56.896C18.9424 58.5705 20.3348 59.928 22.0524 59.928Z" fill="white"/>
<path d="M45.3363 11.0518C45.1263 10.8358 44.7603 11.0698 44.8683 11.3478C46.6083 15.8858 50.6823 25.7098 43.7323 30.5758C38.8523 33.9938 30.6223 31.4738 26.6563 36.2558C25.0383 38.2078 24.7583 41.0418 25.7043 43.3758C26.6503 45.7078 28.7083 47.5258 31.0803 48.4958C33.4543 49.4658 36.1163 49.6358 38.6643 49.2798C49.8303 47.7238 55.2423 37.9918 54.8203 30.0978C54.8023 29.7798 54.3343 29.6818 54.2243 29.9818C53.0343 33.2418 52.4223 37.4338 46.0383 41.1398C38.5703 45.4738 33.9543 43.8378 33.1423 41.8338C31.4503 37.6638 39.6103 38.1918 44.7303 35.2978C51.2963 31.5858 54.8483 20.8238 45.3363 11.0518Z" fill="white"/>
<path d="M50.5123 52.316C52.23 52.316 53.6223 50.9585 53.6223 49.284C53.6223 47.6094 52.23 46.252 50.5123 46.252C48.7947 46.252 47.4023 47.6094 47.4023 49.284C47.4023 50.9585 48.7947 52.316 50.5123 52.316Z" fill="white"/>
<path d="M57.5397 26.8279C59.2573 26.8279 60.6497 25.4704 60.6497 23.7959C60.6497 22.1214 59.2573 20.7639 57.5397 20.7639C55.8221 20.7639 54.4297 22.1214 54.4297 23.7959C54.4297 25.4704 55.8221 26.8279 57.5397 26.8279Z" fill="white"/>
</svg>
